<?xml version="1.0" encoding="UTF-8" standalone="no"?>
<!-- Created with Inkscape (http://www.inkscape.org/) -->

<svg
   width="246.77126"
   height="126.14"
   id="svg2"
   version="1.1"
   inkscape:version="1.1.1 (3bf5ae0d25, 2021-09-20)"
   sodipodi:docname="Hello_my_name_is_sticker.svg"
   xmlns:inkscape="http://www.inkscape.org/namespaces/inkscape"
   xmlns:sodipodi="http://sodipodi.sourceforge.net/DTD/sodipodi-0.dtd"
   xmlns="http://www.w3.org/2000/svg"
   xmlns:svg="http://www.w3.org/2000/svg"
   xmlns:rdf="http://www.w3.org/1999/02/22-rdf-syntax-ns#"
   xmlns:cc="http://creativecommons.org/ns#"
   xmlns:dc="http://purl.org/dc/elements/1.1/">
  <defs
     id="defs4" />
  <sodipodi:namedview
     id="base"
     pagecolor="#ffffff"
     bordercolor="#666666"
     borderopacity="1.0"
     inkscape:pageopacity="0.0"
     inkscape:pageshadow="2"
     inkscape:zoom="0.7"
     inkscape:cx="50"
     inkscape:cy="202.85714"
     inkscape:document-units="px"
     inkscape:current-layer="layer1"
     showgrid="false"
     fit-margin-top="0"
     fit-margin-left="0"
     fit-margin-right="0"
     fit-margin-bottom="0"
     inkscape:window-width="3840"
     inkscape:window-height="2066"
     inkscape:window-x="2869"
     inkscape:window-y="-11"
     inkscape:window-maximized="1"
     inkscape:pagecheckerboard="0" />
  <metadata
     id="metadata7">
    <rdf:RDF>
      <cc:Work
         rdf:about="">
        <dc:format>image/svg+xml</dc:format>
        <dc:type
           rdf:resource="http://purl.org/dc/dcmitype/StillImage" />
        <dc:title />
      </cc:Work>
    </rdf:RDF>
  </metadata>
  <g
     inkscape:label="Layer 1"
     inkscape:groupmode="layer"
     id="layer1"
     transform="translate(-247.67462,-345.79074)">
    <g
       style="font-style:normal;font-variant:normal;font-weight:normal;font-stretch:normal;font-size:44px;line-height:125%;font-family:Arial;-inkscape-font-specification:Arial;text-align:center;letter-spacing:0px;word-spacing:0px;text-anchor:middle;fill:#ffffff;fill-opacity:1;stroke:none"
       id="text3761">
      <path
         d="m 307.72119,419.79074 v -74 h -13.7 v 30.1 h -26.5 v -30.1 h -13.7 v 74 h 13.7 v -31.1 h 26.5 v 31.1 h 13.7"
         style="font-weight:bold;font-size:100px;font-family:'ITC Avant Garde Gothic Pro';-inkscape-font-specification:'ITC Avant Garde Gothic Pro';fill:#ffffff"
         id="path3955"
         inkscape:connector-curvature="0" />
      <path
         d="m 375.68994,391.29074 c 0,-16.09998 -12.50001,-28.9 -28.7,-28.9 -16.79998,0 -29.2,13.20002 -29.2,29.8 0,16.49998 12.70002,29.4 29.3,29.4 11.79999,0 23.20001,-8.00001 26.8,-19.3 h -14 c -2.7,4.9 -7.4,7.1 -12.8,7.1 -5.49999,0 -10.5,-2.8 -13.5,-7.4 -0.8,-1.2 -1.5,-2.5 -1.8,-4 h 43.1 c 0.5,-2.2 0.8,-4.5 0.8,-6.7 m -13.6,-4 h -30.7 c 1.9,-7.89999 7.60001,-12.7 15.7,-12.7 8.09999,0 13.7,4.70001 15,12.7"
         style="font-weight:bold;font-size:100px;font-family:'ITC Avant Garde Gothic Pro';-inkscape-font-specification:'ITC Avant Garde Gothic Pro';fill:#ffffff"
         id="path3957"
         inkscape:connector-curvature="0" />
      <path
         d="m 397.45244,419.79074 v -74 h -13.3 v 74 h 13.3"
         style="font-weight:bold;font-size:100px;font-family:'ITC Avant Garde Gothic Pro';-inkscape-font-specification:'ITC Avant Garde Gothic Pro';fill:#ffffff"
         id="path3959"
         inkscape:connector-curvature="0" />
      <path
         d="m 421.47588,419.79074 v -74 h -13.3 v 74 h 13.3"
         style="font-weight:bold;font-size:100px;font-family:'ITC Avant Garde Gothic Pro';-inkscape-font-specification:'ITC Avant Garde Gothic Pro';fill:#ffffff"
         id="path3961"
         inkscape:connector-curvature="0" />
      <path
         d="m 488.29932,391.89074 c 0,-16.29998 -13.00002,-29.5 -29.4,-29.5 -16.39999,0 -29.6,13.40002 -29.6,29.7 0,16.19998 13.40001,29.5 29.6,29.5 16.79998,0 29.4,-12.90002 29.4,-29.7 m -13.3,0.3 c 0,9.09999 -6.70001,17.2 -16.1,17.2 -9.59999,0 -16.3,-8.00001 -16.3,-17.3 0,-8.99999 6.90001,-17.5 16.3,-17.5 9.39999,0 16.1,8.70001 16.1,17.6"
         style="font-weight:bold;font-size:100px;font-family:'ITC Avant Garde Gothic Pro';-inkscape-font-specification:'ITC Avant Garde Gothic Pro';fill:#ffffff"
         id="path3963"
         inkscape:connector-curvature="0" />
    </g>
    <g
       style="font-style:normal;font-variant:normal;font-weight:normal;font-stretch:normal;font-size:44px;line-height:125%;font-family:Arial;-inkscape-font-specification:Arial;text-align:center;letter-spacing:0px;word-spacing:0px;text-anchor:middle;fill:#ffffff;fill-opacity:1;stroke:none"
       id="text3769">
      <path
         d="m 284.54662,463.79074 v -14.696 c 0,-6.29199 -3.476,-10.34 -9.944,-10.34 -3.56399,0 -6.16,1.1 -8.052,4.092 -1.276,-2.728 -4.708,-4.092 -7.568,-4.092 -3.21199,0 -4.972,0.924 -6.996,3.3 h -0.088 v -2.64 h -4.224 v 24.376 h 4.576 v -13.596 c 0,-4.09199 1.32001,-7.26 6.028,-7.26 1.892,0 3.476,0.66 4.532,2.288 1.012,1.628 1.012,3.168 1.012,5.016 v 13.552 h 4.576 v -13.596 c 0,-4.004 1.05601,-7.26 5.808,-7.26 4.488,0 5.764,3.476 5.764,7.304 v 13.552 h 4.576"
         style="font-weight:500;line-height:125%;font-family:'ITC Avant Garde Gothic Pro';-inkscape-font-specification:'ITC Avant Garde Gothic Pro Medium';writing-mode:lr-tb;fill:#ffffff"
         id="path3966"
         inkscape:connector-curvature="0" />
      <path
         d="m 310.9645,439.41474 h -4.928 l -7.348,18.92 -7.172,-18.92 h -4.928 l 9.724,23.892 -3.564,8.624 h 4.752 l 13.464,-32.516"
         style="font-weight:500;line-height:125%;font-family:'ITC Avant Garde Gothic Pro';-inkscape-font-specification:'ITC Avant Garde Gothic Pro Medium';writing-mode:lr-tb;fill:#ffffff"
         id="path3968"
         inkscape:connector-curvature="0" />
      <path
         d="m 348.94269,463.79074 v -14.432 c 0,-2.156 -0.35201,-4.4 -1.54,-6.248 -1.892,-2.992 -5.14801,-4.356 -8.624,-4.356 -2.816,0 -5.36801,0.924 -7.128,3.256 h -0.088 v -2.596 h -4.268 v 24.376 h 4.576 v -13.288 c 0,-4.09199 1.936,-7.568 6.424,-7.568 4.83999,0 6.072,3.47601 6.072,7.612 v 13.244 h 4.576"
         style="font-weight:500;line-height:125%;font-family:'ITC Avant Garde Gothic Pro';-inkscape-font-specification:'ITC Avant Garde Gothic Pro Medium';writing-mode:lr-tb;fill:#ffffff"
         id="path3970"
         inkscape:connector-curvature="0" />
      <path
         d="m 379.34875,463.79074 v -24.376 h -4.576 v 3.432 h -0.088 c -1.804,-2.772 -5.016,-4.092 -8.272,-4.092 -7.39199,0 -12.936,5.54401 -12.936,12.936 0,7.34799 5.63201,12.716 12.936,12.716 3.344,0 6.556,-1.452 8.272,-4.4 h 0.088 v 3.784 h 4.576 m -4.488,-12.144 c 0,4.708 -3.74001,8.58 -8.492,8.58 -4.664,0 -8.316,-4.004 -8.316,-8.58 0,-4.75199 3.52,-8.712 8.36,-8.712 4.97199,0 8.448,3.82801 8.448,8.712"
         style="font-weight:500;line-height:125%;font-family:'ITC Avant Garde Gothic Pro';-inkscape-font-specification:'ITC Avant Garde Gothic Pro Medium';writing-mode:lr-tb;fill:#ffffff"
         id="path3972"
         inkscape:connector-curvature="0" />
      <path
         d="m 422.13256,463.79074 v -14.696 c 0,-6.29199 -3.47601,-10.34 -9.944,-10.34 -3.564,0 -6.16,1.1 -8.052,4.092 -1.276,-2.728 -4.708,-4.092 -7.568,-4.092 -3.212,0 -4.972,0.924 -6.996,3.3 h -0.088 v -2.64 h -4.224 v 24.376 h 4.576 v -13.596 c 0,-4.09199 1.32001,-7.26 6.028,-7.26 1.892,0 3.476,0.66 4.532,2.288 1.012,1.628 1.012,3.168 1.012,5.016 v 13.552 h 4.576 v -13.596 c 0,-4.004 1.05601,-7.26 5.808,-7.26 4.488,0 5.764,3.476 5.764,7.304 v 13.552 h 4.576"
         style="font-weight:500;line-height:125%;font-family:'ITC Avant Garde Gothic Pro';-inkscape-font-specification:'ITC Avant Garde Gothic Pro Medium';writing-mode:lr-tb;fill:#ffffff"
         id="path3974"
         inkscape:connector-curvature="0" />
      <path
         d="m 451.6435,451.29474 c 0,-6.86399 -5.50001,-12.54 -12.408,-12.54 -7.12799,0 -12.496,5.76401 -12.496,12.804 0,6.81999 5.45601,12.848 12.408,12.848 5.32399,0 9.856,-3.3 11.704,-8.272 h -4.576 c -1.32,2.552 -4.092,4.092 -6.952,4.092 -4.004,0 -7.084,-2.86 -8.008,-6.644 h 20.196 c 0.088,-0.748 0.132,-1.54 0.132,-2.288 m -4.576,-1.232 h -15.752 c 0.264,-4.004 3.916,-7.128 7.876,-7.128 3.95999,0 7.612,3.124 7.876,7.128"
         style="font-weight:500;line-height:125%;font-family:'ITC Avant Garde Gothic Pro';-inkscape-font-specification:'ITC Avant Garde Gothic Pro Medium';writing-mode:lr-tb;fill:#ffffff"
         id="path3976"
         inkscape:connector-curvature="0" />
      <path
         d="m 473.7975,436.59874 v -5.368 h -4.576 v 5.368 h 4.576 m 0,27.192 v -24.376 h -4.576 v 24.376 h 4.576"
         style="font-weight:500;line-height:125%;font-family:'ITC Avant Garde Gothic Pro';-inkscape-font-specification:'ITC Avant Garde Gothic Pro Medium';writing-mode:lr-tb;fill:#ffffff"
         id="path3978"
         inkscape:connector-curvature="0" />
      <path
         d="m 494.44587,456.61874 c 0,-4.70799 -3.344,-6.688 -7.348,-7.92 -1.67199,-0.528 -3.784,-1.012 -3.784,-3.168 0,-1.628 1.32001,-2.596 2.86,-2.596 1.848,0 2.904,1.188 3.124,2.948 h 4.576 c -0.088,-4.22399 -3.3,-7.128 -7.48,-7.128 -4.00399,0 -7.656,2.86001 -7.656,7.04 0,8.62399 11.132,5.98401 11.132,11.088 0,2.112 -1.496,3.344 -3.52,3.344 -2.72799,0 -3.96,-1.936 -4.136,-4.444 h -4.576 c 0,3.828 1.89201,6.776 5.5,8.052 1.012,0.352 2.068,0.572 3.124,0.572 4.664,0 8.184,-2.992 8.184,-7.788"
         style="font-weight:500;line-height:125%;font-family:'ITC Avant Garde Gothic Pro';-inkscape-font-specification:'ITC Avant Garde Gothic Pro Medium';writing-mode:lr-tb;fill:#ffffff"
         id="path3980"
         inkscape:connector-curvature="0" />
    </g>
  </g>
</svg>
